<svg width="24" height="24" viewBox="0 0 24 24" fill="none" xmlns="http://www.w3.org/2000/svg">
<path d="M20.3504 9.99362H13.9346L18.6695 0.478088H10.3195L4.68061 11.8103H9.47822L3.65039 23.5219L20.3504 9.99362Z" fill="#FFF4C7"/>
<path d="M3.64998 24C3.54413 24 3.43834 23.965 3.35091 23.8949C3.17546 23.7542 3.12179 23.5103 3.22196 23.3089L8.70591 12.2883H4.68019C4.51468 12.2883 4.36093 12.2027 4.27379 12.062C4.18665 11.9212 4.17844 11.7455 4.25223 11.5973L9.89115 0.265078C9.97196 0.102703 10.1378 0 10.3191 0H18.6691C18.8347 0 18.9884 0.0856406 19.0756 0.226313C19.1626 0.367078 19.1709 0.542859 19.0971 0.691078L14.706 9.51553H20.3499C20.5524 9.51553 20.733 9.64308 20.8006 9.834C20.8682 10.0249 20.8082 10.2376 20.6509 10.3651L3.95091 23.8935C3.86321 23.9644 3.75662 24 3.64998 24ZM5.45204 11.3322H9.47776C9.64327 11.3322 9.79702 11.4178 9.88416 11.5585C9.9713 11.6992 9.97951 11.875 9.90573 12.0233L5.05749 21.7664L19.0002 10.4717H13.9342C13.7686 10.4717 13.6149 10.386 13.5277 10.2454C13.4406 10.1046 13.4324 9.92883 13.5061 9.78061L17.8973 0.956156H10.6153L5.45204 11.3322Z" fill="#003380"/>
<path d="M15.7294 12.2652C15.5901 12.2652 15.452 12.2047 15.3576 12.088C15.1914 11.8829 15.223 11.5818 15.4281 11.4156L15.7628 11.1445C15.968 10.9784 16.269 11.0099 16.4352 11.2151C16.6014 11.4202 16.5698 11.7213 16.3646 11.8875L16.03 12.1586C15.9414 12.2303 15.8351 12.2652 15.7294 12.2652Z" fill="#003380"/>
<path d="M11.6893 15.5378C11.55 15.5378 11.412 15.4773 11.3175 15.3607C11.1514 15.1555 11.1829 14.8545 11.3881 14.6882L14.2805 12.345C14.4858 12.1789 14.7867 12.2104 14.953 12.4156C15.1192 12.6207 15.0875 12.9218 14.8824 13.088L11.9899 15.4313C11.9014 15.503 11.795 15.5378 11.6893 15.5378Z" fill="#003380"/>
</svg>
