<svg width="18" height="24" viewBox="0 0 18 24" fill="none" xmlns="http://www.w3.org/2000/svg">
<path d="M0.649976 24C0.544132 24 0.438335 23.965 0.350913 23.8949C0.17546 23.7542 0.121788 23.5103 0.22196 23.3089L5.70591 12.2883H1.68019C1.51468 12.2883 1.36093 12.2027 1.27379 12.062C1.18665 11.9213 1.17844 11.7455 1.25223 11.5972L6.89115 0.265078C6.97196 0.102703 7.13776 0 7.31912 0H15.6691C15.8347 0 15.9884 0.0856406 16.0756 0.226313C16.1626 0.367078 16.1709 0.542859 16.0971 0.691078L11.706 9.51553H17.3499C17.5524 9.51553 17.733 9.64308 17.8006 9.834C17.8682 10.0249 17.8082 10.2376 17.6509 10.3651L0.950914 23.8935C0.86321 23.9644 0.756616 24 0.649976 24ZM2.45204 11.3322H6.47776C6.64327 11.3322 6.79702 11.4178 6.88416 11.5585C6.9713 11.6992 6.97951 11.875 6.90573 12.0233L2.05749 21.7664L16.0002 10.4717H10.9342C10.7686 10.4717 10.6149 10.386 10.5277 10.2454C10.4406 10.1046 10.4324 9.92883 10.5061 9.78061L14.8973 0.956156H7.61527L2.45204 11.3322Z" fill="#003380"/>
</svg>
